<svg width="120" height="70" viewBox="0 0 120 70" fill="none" xmlns="http://www.w3.org/2000/svg">
<path d="M93.697 45.584H87.6769V56H76.64V16.8H94.4774C98.0077 16.8 101.074 17.3974 103.675 18.592C106.276 19.7494 108.283 21.4294 109.695 23.632C111.107 25.7974 111.813 28.3547 111.813 31.304C111.813 34.1414 111.144 36.624 109.806 38.752C108.506 40.8427 106.629 42.4853 104.177 43.68L112.594 56H100.776L93.697 45.584ZM100.665 31.304C100.665 29.4747 100.089 28.056 98.9368 27.048C97.7848 26.04 96.0754 25.536 93.8085 25.536H87.6769V37.016H93.8085C96.0754 37.016 97.7848 36.5307 98.9368 35.56C100.089 34.552 100.665 33.1334 100.665 31.304Z" fill="#383838"/>
<path d="M56.9005 56.0661C54.6194 56.0661 52.3715 55.8134 50.1573 55.3078C47.9431 54.7686 46.1652 54.0775 44.8231 53.235L47.6915 46.6628C48.9329 47.438 50.4089 48.0614 52.1199 48.5334C53.8309 48.9714 55.5252 49.1906 57.2025 49.1906C58.7458 49.1906 59.8361 49.0389 60.4734 48.7356C61.1445 48.3986 61.4799 47.9267 61.4799 47.32C61.4799 46.7133 61.0773 46.292 60.2722 46.0561C59.5007 45.7864 58.2592 45.5337 56.5483 45.2978C54.3678 45.0281 52.5058 44.6742 50.9625 44.2361C49.4528 43.798 48.1444 42.9892 47.0373 41.8095C45.9302 40.6298 45.3767 38.9783 45.3767 36.855C45.3767 35.1025 45.8967 33.552 46.9367 32.2039C47.9768 30.822 49.4865 29.7436 51.4657 28.9683C53.4786 28.1594 55.8774 27.755 58.6618 27.755C60.6412 27.755 62.6038 27.9572 64.5496 28.3617C66.4955 28.7661 68.1225 29.3391 69.4309 30.0806L66.5625 36.6022C64.147 35.2541 61.5302 34.58 58.7122 34.58C57.2025 34.58 56.0954 34.7653 55.3909 35.1361C54.6863 35.4731 54.3341 35.9281 54.3341 36.5011C54.3341 37.1414 54.72 37.5964 55.4915 37.8661C56.2632 38.102 57.5381 38.3548 59.316 38.6245C61.5639 38.9614 63.4258 39.3491 64.9018 39.7872C66.378 40.2253 67.6529 41.0342 68.7263 42.2139C69.8334 43.3598 70.387 44.9775 70.387 47.0672C70.387 48.7861 69.8671 50.3364 68.827 51.7184C67.787 53.0664 66.2439 54.1281 64.1973 54.9034C62.1844 55.6786 59.7523 56.0661 56.9005 56.0661Z" fill="#383838"/>
<path d="M22.7582 55.9681C19.7529 55.9681 16.8362 55.5952 14.0078 54.8493C11.1795 54.1034 8.88138 53.1088 7.11365 51.8657L10.5607 44.0872C12.2224 45.1883 14.1493 46.0761 16.3413 46.7511C18.5333 47.426 20.6899 47.7633 22.8112 47.7633C26.8416 47.7633 28.8569 46.7511 28.8569 44.7265C28.8569 43.6609 28.2735 42.8795 27.1068 42.3823C25.9755 41.8495 24.137 41.299 21.5915 40.7307C18.7984 40.1269 16.465 39.4876 14.5912 38.8127C12.7174 38.1024 11.1087 36.9835 9.76526 35.4562C8.42178 33.9288 7.75003 31.8689 7.75003 29.2759C7.75003 27.0027 8.36875 24.9604 9.60616 23.149C10.8436 21.302 12.682 19.8458 15.1215 18.7802C17.5964 17.7147 20.6193 17.1819 24.19 17.1819C26.6295 17.1819 29.0336 17.466 31.4024 18.0343C33.7713 18.5671 35.8571 19.3663 37.6602 20.4318L34.4253 28.2637C30.8897 26.3457 27.4604 25.3867 24.137 25.3867C22.0511 25.3867 20.5308 25.7063 19.5762 26.3457C18.6216 26.9494 18.1444 27.7486 18.1444 28.7432C18.1444 29.7378 18.71 30.4836 19.8414 30.9808C20.9727 31.478 22.7936 31.9931 25.3037 32.5259C28.132 33.1296 30.4655 33.7869 32.304 34.4972C34.1777 35.1721 35.7865 36.273 37.1299 37.8004C38.5087 39.2922 39.1982 41.3344 39.1982 43.9273C39.1982 46.165 38.5794 48.1896 37.342 50.001C36.1047 51.8125 34.2486 53.2686 31.7736 54.3698C29.2987 55.4353 26.2937 55.9681 22.7582 55.9681Z" fill="#383838"/>
<path d="M43.7419 16.9167V23.9167H71.4193V16.9167H43.7419Z" fill="#FF9900"/>
</svg>
